<?xml version="1.0" standalone="no"?>
<!DOCTYPE svg PUBLIC "-//W3C//DTD SVG 20010904//EN"
 "http://www.w3.org/TR/2001/REC-SVG-20010904/DTD/svg10.dtd">
<svg version="1.0" xmlns="http://www.w3.org/2000/svg"
 width="700.000000pt" height="700.000000pt" viewBox="0 0 700.000000 700.000000"
 preserveAspectRatio="xMidYMid meet">
<metadata>
Created by potrace 1.11, written by Peter Selinger 2001-2013
</metadata>
<g transform="translate(0.000000,700.000000) scale(0.100000,-0.100000)"
fill="#000000" stroke="none">
<path d="M3549 6627 c-72 -253 -103 -374 -95 -378 19 -12 238 -71 242 -66 9 8
215 740 210 744 -5 5 -235 73 -246 73 -3 0 -53 -168 -111 -373z"/>
<path d="M4146 6300 c-163 -133 -296 -243 -296 -246 0 -3 36 -50 81 -105 56
-69 84 -97 92 -91 7 5 144 116 305 246 l292 237 -81 100 c-45 54 -85 99 -89
99 -4 0 -141 -108 -304 -240z"/>
<path d="M2590 5598 c-1883 -1527 -1807 -1465 -1945 -1609 -345 -363 -544
-748 -620 -1199 -9 -52 -19 -171 -22 -265 -20 -624 232 -1246 705 -1737 392
-406 862 -664 1387 -759 162 -30 526 -33 682 -6 532 91 983 355 1384 807 119
134 1669 2046 1669 2058 -1 6 -1110 902 -1194 964 l-23 18 -806 -993 c-442
-545 -834 -1021 -870 -1056 -76 -75 -128 -112 -212 -152 -257 -124 -591 -46
-834 193 -329 324 -366 753 -91 1060 43 48 1054 877 1845 1513 116 92 213 171
217 174 8 7 -961 1213 -977 1217 -5 2 -138 -101 -295 -228z m-13 -931 c73 -95
153 -197 178 -228 l45 -57 -613 -498 c-353 -287 -652 -538 -708 -594 -236
-238 -354 -518 -353 -835 3 -603 472 -1167 1089 -1311 63 -15 117 -19 250 -18
151 0 181 4 268 27 119 32 279 106 384 179 42 29 118 94 167 143 50 50 316
368 591 707 275 340 503 618 506 618 15 0 444 -362 443 -373 -2 -24 -1008
-1252 -1119 -1366 -587 -603 -1329 -735 -2064 -366 -336 168 -654 463 -863
800 -128 206 -214 429 -265 680 -27 138 -25 454 5 592 76 353 241 645 522 922
82 82 339 298 755 637 347 282 635 513 640 513 6 0 70 -77 142 -172z"/>
<path d="M4431 5703 c-179 -13 -326 -25 -328 -27 -4 -4 15 -258 20 -261 1 -2
762 52 775 54 4 1 -4 110 -14 209 l-5 52 -62 -1 c-34 -1 -208 -12 -386 -26z"/>
<path d="M5450 4878 c0 -18 -11 -193 -24 -388 -13 -195 -23 -356 -21 -358 4
-4 257 -23 261 -20 1 2 12 149 23 328 12 179 23 353 27 387 l5 61 -53 6 c-29
3 -90 8 -135 11 l-83 6 0 -33z"/>
<path d="M6094 4343 c-126 -157 -235 -294 -241 -304 -11 -15 -2 -26 80 -91 50
-41 97 -77 103 -81 11 -7 495 582 494 600 -1 8 -193 163 -202 163 -2 0 -107
-129 -234 -287z"/>
<path d="M6543 3821 c-199 -59 -365 -109 -368 -112 -5 -6 60 -237 70 -247 6
-6 755 209 755 217 0 17 -83 251 -88 250 -4 0 -170 -49 -369 -108z"/>
</g>
</svg>
